<mxfile host="Electron" modified="2023-04-27T00:19:34.269Z" agent="Mozilla/5.0 (Windows NT 10.0; Win64; x64) AppleWebKit/537.36 (KHTML, like Gecko) draw.io/21.1.2 Chrome/106.0.5249.199 Electron/21.4.3 Safari/537.36" etag="76gyBkwNcEw-LMjU5bAD" version="21.1.2" type="device">
  <diagram name="Page-1" id="0PpvX5isbW5rEhzf8l8j">
    <mxGraphModel dx="2359" dy="1988" grid="1" gridSize="10" guides="1" tooltips="1" connect="1" arrows="1" fold="1" page="1" pageScale="1" pageWidth="850" pageHeight="1100" math="0" shadow="0">
      <root>
        <mxCell id="0" />
        <mxCell id="1" parent="0" />
        <mxCell id="N7JFlZK18YxuQD6vvopf-1" value="&lt;div style=&quot;border: 0px; font-style: normal; font-variant-ligatures: normal; font-variant-caps: normal; font-variant-numeric: inherit; font-variant-east-asian: inherit; font-weight: 400; font-stretch: inherit; line-height: inherit; font-family: OpenSans, Arial, Helvetica, sans-serif; font-optical-sizing: inherit; font-kerning: inherit; font-feature-settings: inherit; font-variation-settings: inherit; font-size: 16px; margin: 0px; outline: 0px; padding: 0px; vertical-align: baseline; color: rgb(14, 20, 30); letter-spacing: normal; orphans: 2; text-align: start; text-indent: 0px; text-transform: none; widows: 2; word-spacing: 0px; -webkit-text-stroke-width: 0px; background-color: rgb(255, 255, 255); text-decoration-thickness: initial; text-decoration-style: initial; text-decoration-color: initial;&quot; class=&quot;challenge_problem_statement&quot;&gt;&lt;div style=&quot;border: 0px; font-style: inherit; font-variant: inherit; font-weight: inherit; font-stretch: inherit; line-height: inherit; font-family: inherit; font-optical-sizing: inherit; font-kerning: inherit; font-feature-settings: inherit; font-variation-settings: inherit; font-size: 16px; margin: 0px 0px 10px; outline: 0px; padding: 0px; vertical-align: baseline;&quot; class=&quot;msB challenge_problem_statement_body&quot;&gt;&lt;div style=&quot;border: 0px; font-style: inherit; font-variant: inherit; font-weight: inherit; font-stretch: inherit; line-height: inherit; font-family: inherit; font-optical-sizing: inherit; font-kerning: inherit; font-feature-settings: inherit; font-variation-settings: inherit; font-size: 16px; margin: 0px; outline: 0px; padding: 0px; vertical-align: baseline;&quot; class=&quot;hackdown-content&quot;&gt;&lt;p style=&quot;border: 0px; font-style: inherit; font-variant: inherit; font-weight: 400; font-stretch: inherit; line-height: 2; font-family: var(--font-family-text); font-optical-sizing: inherit; font-kerning: inherit; font-feature-settings: inherit; font-variation-settings: inherit; font-size: 14px; margin: 5px 0px 0px; outline: 0px; padding: 0px; vertical-align: baseline; color: var(--color-text-dark-faded,#576871);&quot;&gt;Two strings are&lt;span&gt;&amp;nbsp;&lt;/span&gt;&lt;a style=&quot;border: 0px; font-style: inherit; font-variant: inherit; font-weight: 400; font-stretch: inherit; line-height: inherit; font-family: var(--font-family-text); font-optical-sizing: inherit; font-kerning: inherit; font-feature-settings: inherit; font-variation-settings: inherit; font-size: 14px; margin: 0px; outline: 0px; padding: 0px; vertical-align: baseline; background-color: transparent; text-decoration: none; color: var(--color-link);&quot; href=&quot;http://en.wikipedia.org/wiki/Anagram&quot;&gt;&lt;em style=&quot;border: 0px; font-style: inherit; font-variant: inherit; font-weight: inherit; font-stretch: inherit; line-height: inherit; font-family: inherit; font-optical-sizing: inherit; font-kerning: inherit; font-feature-settings: inherit; font-variation-settings: inherit; font-size: 14px; margin: 0px; outline: 0px; padding: 0px; vertical-align: baseline;&quot;&gt;anagrams&lt;/em&gt;&lt;/a&gt;&lt;span&gt;&amp;nbsp;&lt;/span&gt;of each other if the letters of one string can be rearranged to form the other string. Given a string, find the number of pairs of substrings of the string that are anagrams of each other.&lt;/p&gt;&lt;p style=&quot;border: 0px; font-style: inherit; font-variant: inherit; font-weight: 400; font-stretch: inherit; line-height: 2; font-family: var(--font-family-text); font-optical-sizing: inherit; font-kerning: inherit; font-feature-settings: inherit; font-variation-settings: inherit; font-size: 14px; margin: 5px 0px 0px; outline: 0px; padding: 0px; vertical-align: baseline; color: var(--color-text-dark-faded,#576871);&quot;&gt;&lt;strong style=&quot;border: 0px; font-style: inherit; font-variant: inherit; font-weight: bolder; font-stretch: inherit; line-height: inherit; font-family: inherit; font-optical-sizing: inherit; font-kerning: inherit; font-feature-settings: inherit; font-variation-settings: inherit; font-size: 14px; margin: 0px; outline: 0px; padding: 0px; vertical-align: baseline; color: var(--color-text-dark,#0e141e);&quot;&gt;Example&lt;/strong&gt;&lt;br&gt;&lt;span style=&quot;border: 0px; font-style: normal; font-variant: inherit; font-weight: normal; font-stretch: inherit; line-height: normal; font-family: inherit; font-optical-sizing: inherit; font-kerning: inherit; font-feature-settings: inherit; font-variation-settings: inherit; font-size: 14px; margin: 0px; outline: 0px; padding: 0px; vertical-align: baseline; display: inline-block; text-indent: 0px; text-align: left; text-transform: none; letter-spacing: normal; word-spacing: normal; overflow-wrap: normal; float: none; direction: ltr; max-width: none; max-height: none; min-width: 0px; min-height: 0px;&quot; id=&quot;MathJax-Element-1-Frame&quot; class=&quot;MathJax_SVG&quot;&gt;&lt;svg role=&quot;img&quot; viewBox=&quot;0 -576.1 4046.1 721.6&quot; style=&quot;vertical-align: -0.338ex;&quot; height=&quot;1.676ex&quot; width=&quot;9.397ex&quot; xmlns:xlink=&quot;http://www.w3.org/1999/xlink&quot;&gt;&lt;g transform=&quot;matrix(1 0 0 -1 0 0)&quot; stroke-width=&quot;0&quot; fill=&quot;currentColor&quot; stroke=&quot;currentColor&quot;&gt;&lt;path d=&quot;M131 289Q131 321 147 354T203 415T300 442Q362 442 390 415T419 355Q419 323 402 308T364 292Q351 292 340 300T328 326Q328 342 337 354T354 372T367 378Q368 378 368 379Q368 382 361 388T336 399T297 405Q249 405 227 379T204 326Q204 301 223 291T278 274T330 259Q396 230 396 163Q396 135 385 107T352 51T289 7T195 -10Q118 -10 86 19T53 87Q53 126 74 143T118 160Q133 160 146 151T160 120Q160 94 142 76T111 58Q109 57 108 57T107 55Q108 52 115 47T146 34T201 27Q237 27 263 38T301 66T318 97T323 122Q323 150 302 164T254 181T195 196T148 231Q131 256 131 289Z&quot; stroke-width=&quot;1&quot;&gt;&lt;/path&gt;&lt;g transform=&quot;translate(747,0)&quot;&gt;&lt;path d=&quot;M56 347Q56 360 70 367H707Q722 359 722 347Q722 336 708 328L390 327H72Q56 332 56 347ZM56 153Q56 168 72 173H708Q722 163 722 153Q722 140 707 133H70Q56 140 56 153Z&quot; stroke-width=&quot;1&quot;&gt;&lt;/path&gt;&lt;/g&gt;&lt;g transform=&quot;translate(1803,0)&quot;&gt;&lt;path d=&quot;M21 287Q22 293 24 303T36 341T56 388T88 425T132 442T175 435T205 417T221 395T229 376L231 369Q231 367 232 367L243 378Q303 442 384 442Q401 442 415 440T441 433T460 423T475 411T485 398T493 385T497 373T500 364T502 357L510 367Q573 442 659 442Q713 442 746 415T780 336Q780 285 742 178T704 50Q705 36 709 31T724 26Q752 26 776 56T815 138Q818 149 821 151T837 153Q857 153 857 145Q857 144 853 130Q845 101 831 73T785 17T716 -10Q669 -10 648 17T627 73Q627 92 663 193T700 345Q700 404 656 404H651Q565 404 506 303L499 291L466 157Q433 26 428 16Q415 -11 385 -11Q372 -11 364 -4T353 8T350 18Q350 29 384 161L420 307Q423 322 423 345Q423 404 379 404H374Q288 404 229 303L222 291L189 157Q156 26 151 16Q138 -11 108 -11Q95 -11 87 -5T76 7T74 17Q74 30 112 181Q151 335 151 342Q154 357 154 369Q154 405 129 405Q107 405 92 377T69 316T57 280Q55 278 41 278H27Q21 284 21 287Z&quot; stroke-width=&quot;1&quot;&gt;&lt;/path&gt;&lt;/g&gt;&lt;g transform=&quot;translate(2682,0)&quot;&gt;&lt;path d=&quot;M201 -11Q126 -11 80 38T34 156Q34 221 64 279T146 380Q222 441 301 441Q333 441 341 440Q354 437 367 433T402 417T438 387T464 338T476 268Q476 161 390 75T201 -11ZM121 120Q121 70 147 48T206 26Q250 26 289 58T351 142Q360 163 374 216T388 308Q388 352 370 375Q346 405 306 405Q243 405 195 347Q158 303 140 230T121 120Z&quot; stroke-width=&quot;1&quot;&gt;&lt;/path&gt;&lt;/g&gt;&lt;g transform=&quot;translate(3167,0)&quot;&gt;&lt;path d=&quot;M21 287Q22 293 24 303T36 341T56 388T88 425T132 442T175 435T205 417T221 395T229 376L231 369Q231 367 232 367L243 378Q303 442 384 442Q401 442 415 440T441 433T460 423T475 411T485 398T493 385T497 373T500 364T502 357L510 367Q573 442 659 442Q713 442 746 415T780 336Q780 285 742 178T704 50Q705 36 709 31T724 26Q752 26 776 56T815 138Q818 149 821 151T837 153Q857 153 857 145Q857 144 853 130Q845 101 831 73T785 17T716 -10Q669 -10 648 17T627 73Q627 92 663 193T700 345Q700 404 656 404H651Q565 404 506 303L499 291L466 157Q433 26 428 16Q415 -11 385 -11Q372 -11 364 -4T353 8T350 18Q350 29 384 161L420 307Q423 322 423 345Q423 404 379 404H374Q288 404 229 303L222 291L189 157Q156 26 151 16Q138 -11 108 -11Q95 -11 87 -5T76 7T74 17Q74 30 112 181Q151 335 151 342Q154 357 154 369Q154 405 129 405Q107 405 92 377T69 316T57 280Q55 278 41 278H27Q21 284 21 287Z&quot; stroke-width=&quot;1&quot;&gt;&lt;/path&gt;&lt;/g&gt;&lt;/g&gt;&lt;/svg&gt;&lt;/span&gt;&lt;/p&gt;&lt;p style=&quot;border: 0px; font-style: inherit; font-variant: inherit; font-weight: 400; font-stretch: inherit; line-height: 2; font-family: var(--font-family-text); font-optical-sizing: inherit; font-kerning: inherit; font-feature-settings: inherit; font-variation-settings: inherit; font-size: 14px; margin: 5px 0px 0px; outline: 0px; padding: 0px; vertical-align: baseline; color: var(--color-text-dark-faded,#576871);&quot;&gt;The list of all anagrammatic pairs is&lt;span&gt;&amp;nbsp;&lt;/span&gt;&lt;span style=&quot;border: 0px; font-style: normal; font-variant: inherit; font-weight: normal; font-stretch: inherit; line-height: normal; font-family: inherit; font-optical-sizing: inherit; font-kerning: inherit; font-feature-settings: inherit; font-variation-settings: inherit; font-size: 14px; margin: 0px; outline: 0px; padding: 0px; vertical-align: baseline; display: inline-block; text-indent: 0px; text-align: left; text-transform: none; letter-spacing: normal; word-spacing: normal; overflow-wrap: normal; float: none; direction: ltr; max-width: none; max-height: none; min-width: 0px; min-height: 0px;&quot; id=&quot;MathJax-Element-2-Frame&quot; class=&quot;MathJax_SVG&quot;&gt;&lt;svg role=&quot;img&quot; viewBox=&quot;0 -863.1 6934.5 1223.9&quot; style=&quot;vertical-align: -0.838ex;&quot; height=&quot;2.843ex&quot; width=&quot;16.106ex&quot; xmlns:xlink=&quot;http://www.w3.org/1999/xlink&quot;&gt;&lt;g transform=&quot;matrix(1 0 0 -1 0 0)&quot; stroke-width=&quot;0&quot; fill=&quot;currentColor&quot; stroke=&quot;currentColor&quot;&gt;&lt;path d=&quot;M118 -250V750H255V710H158V-210H255V-250H118Z&quot; stroke-width=&quot;1&quot;&gt;&lt;/path&gt;&lt;g transform=&quot;translate(278,0)&quot;&gt;&lt;path d=&quot;M21 287Q22 293 24 303T36 341T56 388T88 425T132 442T175 435T205 417T221 395T229 376L231 369Q231 367 232 367L243 378Q303 442 384 442Q401 442 415 440T441 433T460 423T475 411T485 398T493 385T497 373T500 364T502 357L510 367Q573 442 659 442Q713 442 746 415T780 336Q780 285 742 178T704 50Q705 36 709 31T724 26Q752 26 776 56T815 138Q818 149 821 151T837 153Q857 153 857 145Q857 144 853 130Q845 101 831 73T785 17T716 -10Q669 -10 648 17T627 73Q627 92 663 193T700 345Q700 404 656 404H651Q565 404 506 303L499 291L466 157Q433 26 428 16Q415 -11 385 -11Q372 -11 364 -4T353 8T350 18Q350 29 384 161L420 307Q423 322 423 345Q423 404 379 404H374Q288 404 229 303L222 291L189 157Q156 26 151 16Q138 -11 108 -11Q95 -11 87 -5T76 7T74 17Q74 30 112 181Q151 335 151 342Q154 357 154 369Q154 405 129 405Q107 405 92 377T69 316T57 280Q55 278 41 278H27Q21 284 21 287Z&quot; stroke-width=&quot;1&quot;&gt;&lt;/path&gt;&lt;/g&gt;&lt;g transform=&quot;translate(1157,0)&quot;&gt;&lt;path d=&quot;M78 35T78 60T94 103T137 121Q165 121 187 96T210 8Q210 -27 201 -60T180 -117T154 -158T130 -185T117 -194Q113 -194 104 -185T95 -172Q95 -168 106 -156T131 -126T157 -76T173 -3V9L172 8Q170 7 167 6T161 3T152 1T140 0Q113 0 96 17Z&quot; stroke-width=&quot;1&quot;&gt;&lt;/path&gt;&lt;/g&gt;&lt;g transform=&quot;translate(1602,0)&quot;&gt;&lt;path d=&quot;M21 287Q22 293 24 303T36 341T56 388T88 425T132 442T175 435T205 417T221 395T229 376L231 369Q231 367 232 367L243 378Q303 442 384 442Q401 442 415 440T441 433T460 423T475 411T485 398T493 385T497 373T500 364T502 357L510 367Q573 442 659 442Q713 442 746 415T780 336Q780 285 742 178T704 50Q705 36 709 31T724 26Q752 26 776 56T815 138Q818 149 821 151T837 153Q857 153 857 145Q857 144 853 130Q845 101 831 73T785 17T716 -10Q669 -10 648 17T627 73Q627 92 663 193T700 345Q700 404 656 404H651Q565 404 506 303L499 291L466 157Q433 26 428 16Q415 -11 385 -11Q372 -11 364 -4T353 8T350 18Q350 29 384 161L420 307Q423 322 423 345Q423 404 379 404H374Q288 404 229 303L222 291L189 157Q156 26 151 16Q138 -11 108 -11Q95 -11 87 -5T76 7T74 17Q74 30 112 181Q151 335 151 342Q154 357 154 369Q154 405 129 405Q107 405 92 377T69 316T57 280Q55 278 41 278H27Q21 284 21 287Z&quot; stroke-width=&quot;1&quot;&gt;&lt;/path&gt;&lt;/g&gt;&lt;g transform=&quot;translate(2480,0)&quot;&gt;&lt;path d=&quot;M22 710V750H159V-250H22V-210H119V710H22Z&quot; stroke-width=&quot;1&quot;&gt;&lt;/path&gt;&lt;/g&gt;&lt;g transform=&quot;translate(2759,0)&quot;&gt;&lt;path d=&quot;M78 35T78 60T94 103T137 121Q165 121 187 96T210 8Q210 -27 201 -60T180 -117T154 -158T130 -185T117 -194Q113 -194 104 -185T95 -172Q95 -168 106 -156T131 -126T157 -76T173 -3V9L172 8Q170 7 167 6T161 3T152 1T140 0Q113 0 96 17Z&quot; stroke-width=&quot;1&quot;&gt;&lt;/path&gt;&lt;/g&gt;&lt;g transform=&quot;translate(3204,0)&quot;&gt;&lt;path d=&quot;M118 -250V750H255V710H158V-210H255V-250H118Z&quot; stroke-width=&quot;1&quot;&gt;&lt;/path&gt;&lt;/g&gt;&lt;g transform=&quot;translate(3482,0)&quot;&gt;&lt;path d=&quot;M21 287Q22 293 24 303T36 341T56 388T88 425T132 442T175 435T205 417T221 395T229 376L231 369Q231 367 232 367L243 378Q303 442 384 442Q401 442 415 440T441 433T460 423T475 411T485 398T493 385T497 373T500 364T502 357L510 367Q573 442 659 442Q713 442 746 415T780 336Q780 285 742 178T704 50Q705 36 709 31T724 26Q752 26 776 56T815 138Q818 149 821 151T837 153Q857 153 857 145Q857 144 853 130Q845 101 831 73T785 17T716 -10Q669 -10 648 17T627 73Q627 92 663 193T700 345Q700 404 656 404H651Q565 404 506 303L499 291L466 157Q433 26 428 16Q415 -11 385 -11Q372 -11 364 -4T353 8T350 18Q350 29 384 161L420 307Q423 322 423 345Q423 404 379 404H374Q288 404 229 303L222 291L189 157Q156 26 151 16Q138 -11 108 -11Q95 -11 87 -5T76 7T74 17Q74 30 112 181Q151 335 151 342Q154 357 154 369Q154 405 129 405Q107 405 92 377T69 316T57 280Q55 278 41 278H27Q21 284 21 287Z&quot; stroke-width=&quot;1&quot;&gt;&lt;/path&gt;&lt;/g&gt;&lt;g transform=&quot;translate(4361,0)&quot;&gt;&lt;path d=&quot;M201 -11Q126 -11 80 38T34 156Q34 221 64 279T146 380Q222 441 301 441Q333 441 341 440Q354 437 367 433T402 417T438 387T464 338T476 268Q476 161 390 75T201 -11ZM121 120Q121 70 147 48T206 26Q250 26 289 58T351 142Q360 163 374 216T388 308Q388 352 370 375Q346 405 306 405Q243 405 195 347Q158 303 140 230T121 120Z&quot; stroke-width=&quot;1&quot;&gt;&lt;/path&gt;&lt;/g&gt;&lt;g transform=&quot;translate(4846,0)&quot;&gt;&lt;path d=&quot;M78 35T78 60T94 103T137 121Q165 121 187 96T210 8Q210 -27 201 -60T180 -117T154 -158T130 -185T117 -194Q113 -194 104 -185T95 -172Q95 -168 106 -156T131 -126T157 -76T173 -3V9L172 8Q170 7 167 6T161 3T152 1T140 0Q113 0 96 17Z&quot; stroke-width=&quot;1&quot;&gt;&lt;/path&gt;&lt;/g&gt;&lt;g transform=&quot;translate(5292,0)&quot;&gt;&lt;path d=&quot;M201 -11Q126 -11 80 38T34 156Q34 221 64 279T146 380Q222 441 301 441Q333 441 341 440Q354 437 367 433T402 417T438 387T464 338T476 268Q476 161 390 75T201 -11ZM121 120Q121 70 147 48T206 26Q250 26 289 58T351 142Q360 163 374 216T388 308Q388 352 370 375Q346 405 306 405Q243 405 195 347Q158 303 140 230T121 120Z&quot; stroke-width=&quot;1&quot;&gt;&lt;/path&gt;&lt;/g&gt;&lt;g transform=&quot;translate(5777,0)&quot;&gt;&lt;path d=&quot;M21 287Q22 293 24 303T36 341T56 388T88 425T132 442T175 435T205 417T221 395T229 376L231 369Q231 367 232 367L243 378Q303 442 384 442Q401 442 415 440T441 433T460 423T475 411T485 398T493 385T497 373T500 364T502 357L510 367Q573 442 659 442Q713 442 746 415T780 336Q780 285 742 178T704 50Q705 36 709 31T724 26Q752 26 776 56T815 138Q818 149 821 151T837 153Q857 153 857 145Q857 144 853 130Q845 101 831 73T785 17T716 -10Q669 -10 648 17T627 73Q627 92 663 193T700 345Q700 404 656 404H651Q565 404 506 303L499 291L466 157Q433 26 428 16Q415 -11 385 -11Q372 -11 364 -4T353 8T350 18Q350 29 384 161L420 307Q423 322 423 345Q423 404 379 404H374Q288 404 229 303L222 291L189 157Q156 26 151 16Q138 -11 108 -11Q95 -11 87 -5T76 7T74 17Q74 30 112 181Q151 335 151 342Q154 357 154 369Q154 405 129 405Q107 405 92 377T69 316T57 280Q55 278 41 278H27Q21 284 21 287Z&quot; stroke-width=&quot;1&quot;&gt;&lt;/path&gt;&lt;/g&gt;&lt;g transform=&quot;translate(6656,0)&quot;&gt;&lt;path d=&quot;M22 710V750H159V-250H22V-210H119V710H22Z&quot; stroke-width=&quot;1&quot;&gt;&lt;/path&gt;&lt;/g&gt;&lt;/g&gt;&lt;/svg&gt;&lt;/span&gt;&lt;span&gt;&amp;nbsp;&lt;/span&gt;at positions&lt;span&gt;&amp;nbsp;&lt;/span&gt;&lt;span style=&quot;border: 0px; font-style: normal; font-variant: inherit; font-weight: normal; font-stretch: inherit; line-height: normal; font-family: inherit; font-optical-sizing: inherit; font-kerning: inherit; font-feature-settings: inherit; font-variation-settings: inherit; font-size: 14px; margin: 0px; outline: 0px; padding: 0px; vertical-align: baseline; display: inline-block; text-indent: 0px; text-align: left; text-transform: none; letter-spacing: normal; word-spacing: normal; overflow-wrap: normal; float: none; direction: ltr; max-width: none; max-height: none; min-width: 0px; min-height: 0px;&quot; id=&quot;MathJax-Element-3-Frame&quot; class=&quot;MathJax_SVG&quot;&gt;&lt;svg role=&quot;img&quot; viewBox=&quot;0 -863.1 8570.8 1223.9&quot; style=&quot;vertical-align: -0.838ex;&quot; height=&quot;2.843ex&quot; width=&quot;19.907ex&quot; xmlns:xlink=&quot;http://www.w3.org/1999/xlink&quot;&gt;&lt;g transform=&quot;matrix(1 0 0 -1 0 0)&quot; stroke-width=&quot;0&quot; fill=&quot;currentColor&quot; stroke=&quot;currentColor&quot;&gt;&lt;path d=&quot;M118 -250V750H255V710H158V-210H255V-250H118Z&quot; stroke-width=&quot;1&quot;&gt;&lt;/path&gt;&lt;g transform=&quot;translate(278,0)&quot;&gt;&lt;path d=&quot;M118 -250V750H255V710H158V-210H255V-250H118Z&quot; stroke-width=&quot;1&quot;&gt;&lt;/path&gt;&lt;/g&gt;&lt;g transform=&quot;translate(557,0)&quot;&gt;&lt;path d=&quot;M96 585Q152 666 249 666Q297 666 345 640T423 548Q460 465 460 320Q460 165 417 83Q397 41 362 16T301 -15T250 -22Q224 -22 198 -16T137 16T82 83Q39 165 39 320Q39 494 96 585ZM321 597Q291 629 250 629Q208 629 178 597Q153 571 145 525T137 333Q137 175 145 125T181 46Q209 16 250 16Q290 16 318 46Q347 76 354 130T362 333Q362 478 354 524T321 597Z&quot; stroke-width=&quot;1&quot;&gt;&lt;/path&gt;&lt;/g&gt;&lt;g transform=&quot;translate(1057,0)&quot;&gt;&lt;path d=&quot;M22 710V750H159V-250H22V-210H119V710H22Z&quot; stroke-width=&quot;1&quot;&gt;&lt;/path&gt;&lt;/g&gt;&lt;g transform=&quot;translate(1336,0)&quot;&gt;&lt;path d=&quot;M78 35T78 60T94 103T137 121Q165 121 187 96T210 8Q210 -27 201 -60T180 -117T154 -158T130 -185T117 -194Q113 -194 104 -185T95 -172Q95 -168 106 -156T131 -126T157 -76T173 -3V9L172 8Q170 7 167 6T161 3T152 1T140 0Q113 0 96 17Z&quot; stroke-width=&quot;1&quot;&gt;&lt;/path&gt;&lt;/g&gt;&lt;g transform=&quot;translate(1781,0)&quot;&gt;&lt;path d=&quot;M118 -250V750H255V710H158V-210H255V-250H118Z&quot; stroke-width=&quot;1&quot;&gt;&lt;/path&gt;&lt;/g&gt;&lt;g transform=&quot;translate(2059,0)&quot;&gt;&lt;path d=&quot;M109 429Q82 429 66 447T50 491Q50 562 103 614T235 666Q326 666 387 610T449 465Q449 422 429 383T381 315T301 241Q265 210 201 149L142 93L218 92Q375 92 385 97Q392 99 409 186V189H449V186Q448 183 436 95T421 3V0H50V19V31Q50 38 56 46T86 81Q115 113 136 137Q145 147 170 174T204 211T233 244T261 278T284 308T305 340T320 369T333 401T340 431T343 464Q343 527 309 573T212 619Q179 619 154 602T119 569T109 550Q109 549 114 549Q132 549 151 535T170 489Q170 464 154 447T109 429Z&quot; stroke-width=&quot;1&quot;&gt;&lt;/path&gt;&lt;/g&gt;&lt;g transform=&quot;translate(2560,0)&quot;&gt;&lt;path d=&quot;M22 710V750H159V-250H22V-210H119V710H22Z&quot; stroke-width=&quot;1&quot;&gt;&lt;/path&gt;&lt;/g&gt;&lt;g transform=&quot;translate(2838,0)&quot;&gt;&lt;path d=&quot;M22 710V750H159V-250H22V-210H119V710H22Z&quot; stroke-width=&quot;1&quot;&gt;&lt;/path&gt;&lt;/g&gt;&lt;g transform=&quot;translate(3117,0)&quot;&gt;&lt;path d=&quot;M78 35T78 60T94 103T137 121Q165 121 187 96T210 8Q210 -27 201 -60T180 -117T154 -158T130 -185T117 -194Q113 -194 104 -185T95 -172Q95 -168 106 -156T131 -126T157 -76T173 -3V9L172 8Q170 7 167 6T161 3T152 1T140 0Q113 0 96 17Z&quot; stroke-width=&quot;1&quot;&gt;&lt;/path&gt;&lt;/g&gt;&lt;g transform=&quot;translate(3562,0)&quot;&gt;&lt;path d=&quot;M118 -250V750H255V710H158V-210H255V-250H118Z&quot; stroke-width=&quot;1&quot;&gt;&lt;/path&gt;&lt;/g&gt;&lt;g transform=&quot;translate(3840,0)&quot;&gt;&lt;path d=&quot;M118 -250V750H255V710H158V-210H255V-250H118Z&quot; stroke-width=&quot;1&quot;&gt;&lt;/path&gt;&lt;/g&gt;&lt;g transform=&quot;translate(4119,0)&quot;&gt;&lt;path d=&quot;M96 585Q152 666 249 666Q297 666 345 640T423 548Q460 465 460 320Q460 165 417 83Q397 41 362 16T301 -15T250 -22Q224 -22 198 -16T137 16T82 83Q39 165 39 320Q39 494 96 585ZM321 597Q291 629 250 629Q208 629 178 597Q153 571 145 525T137 333Q137 175 145 125T181 46Q209 16 250 16Q290 16 318 46Q347 76 354 130T362 333Q362 478 354 524T321 597Z&quot; stroke-width=&quot;1&quot;&gt;&lt;/path&gt;&lt;/g&gt;&lt;g transform=&quot;translate(4619,0)&quot;&gt;&lt;path d=&quot;M78 35T78 60T94 103T137 121Q165 121 187 96T210 8Q210 -27 201 -60T180 -117T154 -158T130 -185T117 -194Q113 -194 104 -185T95 -172Q95 -168 106 -156T131 -126T157 -76T173 -3V9L172 8Q170 7 167 6T161 3T152 1T140 0Q113 0 96 17Z&quot; stroke-width=&quot;1&quot;&gt;&lt;/path&gt;&lt;/g&gt;&lt;g transform=&quot;translate(5065,0)&quot;&gt;&lt;path d=&quot;M213 578L200 573Q186 568 160 563T102 556H83V602H102Q149 604 189 617T245 641T273 663Q275 666 285 666Q294 666 302 660V361L303 61Q310 54 315 52T339 48T401 46H427V0H416Q395 3 257 3Q121 3 100 0H88V46H114Q136 46 152 46T177 47T193 50T201 52T207 57T213 61V578Z&quot; stroke-width=&quot;1&quot;&gt;&lt;/path&gt;&lt;/g&gt;&lt;g transform=&quot;translate(5565,0)&quot;&gt;&lt;path d=&quot;M22 710V750H159V-250H22V-210H119V710H22Z&quot; stroke-width=&quot;1&quot;&gt;&lt;/path&gt;&lt;/g&gt;&lt;g transform=&quot;translate(5844,0)&quot;&gt;&lt;path d=&quot;M78 35T78 60T94 103T137 121Q165 121 187 96T210 8Q210 -27 201 -60T180 -117T154 -158T130 -185T117 -194Q113 -194 104 -185T95 -172Q95 -168 106 -156T131 -126T157 -76T173 -3V9L172 8Q170 7 167 6T161 3T152 1T140 0Q113 0 96 17Z&quot; stroke-width=&quot;1&quot;&gt;&lt;/path&gt;&lt;/g&gt;&lt;g transform=&quot;translate(6289,0)&quot;&gt;&lt;path d=&quot;M118 -250V750H255V710H158V-210H255V-250H118Z&quot; stroke-width=&quot;1&quot;&gt;&lt;/path&gt;&lt;/g&gt;&lt;g transform=&quot;translate(6567,0)&quot;&gt;&lt;path d=&quot;M213 578L200 573Q186 568 160 563T102 556H83V602H102Q149 604 189 617T245 641T273 663Q275 666 285 666Q294 666 302 660V361L303 61Q310 54 315 52T339 48T401 46H427V0H416Q395 3 257 3Q121 3 100 0H88V46H114Q136 46 152 46T177 47T193 50T201 52T207 57T213 61V578Z&quot; stroke-width=&quot;1&quot;&gt;&lt;/path&gt;&lt;/g&gt;&lt;g transform=&quot;translate(7068,0)&quot;&gt;&lt;path d=&quot;M78 35T78 60T94 103T137 121Q165 121 187 96T210 8Q210 -27 201 -60T180 -117T154 -158T130 -185T117 -194Q113 -194 104 -185T95 -172Q95 -168 106 -156T131 -126T157 -76T173 -3V9L172 8Q170 7 167 6T161 3T152 1T140 0Q113 0 96 17Z&quot; stroke-width=&quot;1&quot;&gt;&lt;/path&gt;&lt;/g&gt;&lt;g transform=&quot;translate(7513,0)&quot;&gt;&lt;path d=&quot;M109 429Q82 429 66 447T50 491Q50 562 103 614T235 666Q326 666 387 610T449 465Q449 422 429 383T381 315T301 241Q265 210 201 149L142 93L218 92Q375 92 385 97Q392 99 409 186V189H449V186Q448 183 436 95T421 3V0H50V19V31Q50 38 56 46T86 81Q115 113 136 137Q145 147 170 174T204 211T233 244T261 278T284 308T305 340T320 369T333 401T340 431T343 464Q343 527 309 573T212 619Q179 619 154 602T119 569T109 550Q109 549 114 549Q132 549 151 535T170 489Q170 464 154 447T109 429Z&quot; stroke-width=&quot;1&quot;&gt;&lt;/path&gt;&lt;/g&gt;&lt;g transform=&quot;translate(8013,0)&quot;&gt;&lt;path d=&quot;M22 710V750H159V-250H22V-210H119V710H22Z&quot; stroke-width=&quot;1&quot;&gt;&lt;/path&gt;&lt;/g&gt;&lt;g transform=&quot;translate(8292,0)&quot;&gt;&lt;path d=&quot;M22 710V750H159V-250H22V-210H119V710H22Z&quot; stroke-width=&quot;1&quot;&gt;&lt;/path&gt;&lt;/g&gt;&lt;/g&gt;&lt;/svg&gt;&lt;/span&gt;&lt;span&gt;&amp;nbsp;&lt;/span&gt;respectively.&lt;/p&gt;&lt;p style=&quot;border: 0px; font-style: inherit; font-variant: inherit; font-weight: 400; font-stretch: inherit; line-height: 2; font-family: var(--font-family-text); font-optical-sizing: inherit; font-kerning: inherit; font-feature-settings: inherit; font-variation-settings: inherit; font-size: 14px; margin: 5px 0px 0px; outline: 0px; padding: 0px; vertical-align: baseline; color: var(--color-text-dark-faded,#576871);&quot;&gt;&lt;strong style=&quot;border: 0px; font-style: inherit; font-variant: inherit; font-weight: bolder; font-stretch: inherit; line-height: inherit; font-family: inherit; font-optical-sizing: inherit; font-kerning: inherit; font-feature-settings: inherit; font-variation-settings: inherit; font-size: 14px; margin: 0px; outline: 0px; padding: 0px; vertical-align: baseline; color: var(--color-text-dark,#0e141e);&quot;&gt;Function Description&lt;/strong&gt;&lt;/p&gt;&lt;p style=&quot;border: 0px; font-style: inherit; font-variant: inherit; font-weight: 400; font-stretch: inherit; line-height: 2; font-family: var(--font-family-text); font-optical-sizing: inherit; font-kerning: inherit; font-feature-settings: inherit; font-variation-settings: inherit; font-size: 14px; margin: 5px 0px 0px; outline: 0px; padding: 0px; vertical-align: baseline; color: var(--color-text-dark-faded,#576871);&quot;&gt;Complete the function&lt;span&gt;&amp;nbsp;&lt;/span&gt;&lt;em style=&quot;border: 0px; font-style: inherit; font-variant: inherit; font-weight: inherit; font-stretch: inherit; line-height: inherit; font-family: inherit; font-optical-sizing: inherit; font-kerning: inherit; font-feature-settings: inherit; font-variation-settings: inherit; font-size: 14px; margin: 0px; outline: 0px; padding: 0px; vertical-align: baseline;&quot;&gt;sherlockAndAnagrams&lt;/em&gt;&lt;span&gt;&amp;nbsp;&lt;/span&gt;in the editor below.&lt;/p&gt;&lt;p style=&quot;border: 0px; font-style: inherit; font-variant: inherit; font-weight: 400; font-stretch: inherit; line-height: 2; font-family: var(--font-family-text); font-optical-sizing: inherit; font-kerning: inherit; font-feature-settings: inherit; font-variation-settings: inherit; font-size: 14px; margin: 5px 0px 0px; outline: 0px; padding: 0px; vertical-align: baseline; color: var(--color-text-dark-faded,#576871);&quot;&gt;sherlockAndAnagrams has the following parameter(s):&lt;/p&gt;&lt;ul style=&quot;border: 0px; font-style: inherit; font-variant: inherit; font-weight: inherit; font-stretch: inherit; line-height: inherit; font-family: inherit; font-optical-sizing: inherit; font-kerning: inherit; font-feature-settings: inherit; font-variation-settings: inherit; font-size: 16px; margin: 0px 0px 0px 20px; outline: 0px; padding: 0px; vertical-align: baseline;&quot;&gt;&lt;li style=&quot;border: 0px; font-style: inherit; font-variant: inherit; font-weight: inherit; font-stretch: inherit; line-height: 2; font-family: inherit; font-optical-sizing: inherit; font-kerning: inherit; font-feature-settings: inherit; font-variation-settings: inherit; font-size: 14px; margin: 0px; outline: 0px; padding: 0px; vertical-align: baseline; color: var(--color-text-dark-faded,#576871);&quot;&gt;&lt;em style=&quot;border: 0px; font-style: inherit; font-variant: inherit; font-weight: inherit; font-stretch: inherit; line-height: inherit; font-family: inherit; font-optical-sizing: inherit; font-kerning: inherit; font-feature-settings: inherit; font-variation-settings: inherit; font-size: 14px; margin: 0px; outline: 0px; padding: 0px; vertical-align: baseline;&quot;&gt;string s:&lt;/em&gt;&lt;span&gt;&amp;nbsp;&lt;/span&gt;a string&lt;/li&gt;&lt;/ul&gt;&lt;p style=&quot;border: 0px; font-style: inherit; font-variant: inherit; font-weight: 400; font-stretch: inherit; line-height: 2; font-family: var(--font-family-text); font-optical-sizing: inherit; font-kerning: inherit; font-feature-settings: inherit; font-variation-settings: inherit; font-size: 14px; margin: 5px 0px 0px; outline: 0px; padding: 0px; vertical-align: baseline; color: var(--color-text-dark-faded,#576871);&quot;&gt;&lt;strong style=&quot;border: 0px; font-style: inherit; font-variant: inherit; font-weight: bolder; font-stretch: inherit; line-height: inherit; font-family: inherit; font-optical-sizing: inherit; font-kerning: inherit; font-feature-settings: inherit; font-variation-settings: inherit; font-size: 14px; margin: 0px; outline: 0px; padding: 0px; vertical-align: baseline; color: var(--color-text-dark,#0e141e);&quot;&gt;Returns&lt;/strong&gt;&lt;/p&gt;&lt;ul style=&quot;border: 0px; font-style: inherit; font-variant: inherit; font-weight: inherit; font-stretch: inherit; line-height: inherit; font-family: inherit; font-optical-sizing: inherit; font-kerning: inherit; font-feature-settings: inherit; font-variation-settings: inherit; font-size: 16px; margin: 0px 0px 0px 20px; outline: 0px; padding: 0px; vertical-align: baseline;&quot;&gt;&lt;li style=&quot;border: 0px; font-style: inherit; font-variant: inherit; font-weight: inherit; font-stretch: inherit; line-height: 2; font-family: inherit; font-optical-sizing: inherit; font-kerning: inherit; font-feature-settings: inherit; font-variation-settings: inherit; font-size: 14px; margin: 0px; outline: 0px; padding: 0px; vertical-align: baseline; color: var(--color-text-dark-faded,#576871);&quot;&gt;&lt;em style=&quot;border: 0px; font-style: inherit; font-variant: inherit; font-weight: inherit; font-stretch: inherit; line-height: inherit; font-family: inherit; font-optical-sizing: inherit; font-kerning: inherit; font-feature-settings: inherit; font-variation-settings: inherit; font-size: 14px; margin: 0px; outline: 0px; padding: 0px; vertical-align: baseline;&quot;&gt;int:&lt;/em&gt;&lt;span&gt;&amp;nbsp;&lt;/span&gt;the number of unordered anagrammatic pairs of substrings in&lt;span&gt;&amp;nbsp;&lt;/span&gt;&lt;span style=&quot;border: 0px; font-style: normal; font-variant: inherit; font-weight: normal; font-stretch: inherit; line-height: normal; font-family: inherit; font-optical-sizing: inherit; font-kerning: inherit; font-feature-settings: inherit; font-variation-settings: inherit; font-size: 14px; margin: 0px; outline: 0px; padding: 0px; vertical-align: baseline; display: inline-block; text-indent: 0px; text-align: left; text-transform: none; letter-spacing: normal; word-spacing: normal; overflow-wrap: normal; float: none; direction: ltr; max-width: none; max-height: none; min-width: 0px; min-height: 0px;&quot; id=&quot;MathJax-Element-4-Frame&quot; class=&quot;MathJax_SVG&quot;&gt;&lt;svg role=&quot;img&quot; viewBox=&quot;0 -576.1 469.5 721.6&quot; style=&quot;vertical-align: -0.338ex;&quot; height=&quot;1.676ex&quot; width=&quot;1.09ex&quot; xmlns:xlink=&quot;http://www.w3.org/1999/xlink&quot;&gt;&lt;g transform=&quot;matrix(1 0 0 -1 0 0)&quot; stroke-width=&quot;0&quot; fill=&quot;currentColor&quot; stroke=&quot;currentColor&quot;&gt;&lt;path d=&quot;M131 289Q131 321 147 354T203 415T300 442Q362 442 390 415T419 355Q419 323 402 308T364 292Q351 292 340 300T328 326Q328 342 337 354T354 372T367 378Q368 378 368 379Q368 382 361 388T336 399T297 405Q249 405 227 379T204 326Q204 301 223 291T278 274T330 259Q396 230 396 163Q396 135 385 107T352 51T289 7T195 -10Q118 -10 86 19T53 87Q53 126 74 143T118 160Q133 160 146 151T160 120Q160 94 142 76T111 58Q109 57 108 57T107 55Q108 52 115 47T146 34T201 27Q237 27 263 38T301 66T318 97T323 122Q323 150 302 164T254 181T195 196T148 231Q131 256 131 289Z&quot; stroke-width=&quot;1&quot;&gt;&lt;/path&gt;&lt;/g&gt;&lt;/svg&gt;&lt;/span&gt;&lt;/li&gt;&lt;/ul&gt;&lt;/div&gt;&lt;/div&gt;&lt;/div&gt;&lt;div style=&quot;border: 0px; font-style: normal; font-variant-ligatures: normal; font-variant-caps: normal; font-variant-numeric: inherit; font-variant-east-asian: inherit; font-weight: 400; font-stretch: inherit; line-height: inherit; font-family: OpenSans, Arial, Helvetica, sans-serif; font-optical-sizing: inherit; font-kerning: inherit; font-feature-settings: inherit; font-variation-settings: inherit; font-size: 16px; margin: 0px; outline: 0px; padding: 0px; vertical-align: baseline; color: rgb(14, 20, 30); letter-spacing: normal; orphans: 2; text-align: start; text-indent: 0px; text-transform: none; widows: 2; word-spacing: 0px; -webkit-text-stroke-width: 0px; background-color: rgb(255, 255, 255); text-decoration-thickness: initial; text-decoration-style: initial; text-decoration-color: initial;&quot; class=&quot;challenge_input_format&quot;&gt;&lt;div style=&quot;border: 0px; font-style: inherit; font-variant: inherit; font-weight: inherit; font-stretch: inherit; line-height: inherit; font-family: inherit; font-optical-sizing: inherit; font-kerning: inherit; font-feature-settings: inherit; font-variation-settings: inherit; font-size: 16px; margin: 0px 0px 10px; outline: 0px; padding: 0px; vertical-align: baseline;&quot; class=&quot;msB challenge_input_format_title&quot;&gt;&lt;p style=&quot;border: 0px; font-style: inherit; font-variant: inherit; font-weight: 400; font-stretch: inherit; line-height: 2; font-family: var(--font-family-text); font-optical-sizing: inherit; font-kerning: inherit; font-feature-settings: inherit; font-variation-settings: inherit; font-size: 14px; margin: 5px 0px 0px; outline: 0px; padding: 0px; vertical-align: baseline; color: var(--color-text-dark-faded,#576871);&quot;&gt;&lt;strong style=&quot;border: 0px; font-style: inherit; font-variant: inherit; font-weight: bolder; font-stretch: inherit; line-height: inherit; font-family: inherit; font-optical-sizing: inherit; font-kerning: inherit; font-feature-settings: inherit; font-variation-settings: inherit; font-size: 14px; margin: 0px; outline: 0px; padding: 0px; vertical-align: baseline; color: var(--color-text-dark,#0e141e);&quot;&gt;Input Format&lt;/strong&gt;&lt;/p&gt;&lt;/div&gt;&lt;div style=&quot;border: 0px; font-style: inherit; font-variant: inherit; font-weight: inherit; font-stretch: inherit; line-height: inherit; font-family: inherit; font-optical-sizing: inherit; font-kerning: inherit; font-feature-settings: inherit; font-variation-settings: inherit; font-size: 16px; margin: 0px 0px 10px; outline: 0px; padding: 0px; vertical-align: baseline;&quot; class=&quot;msB challenge_input_format_body&quot;&gt;&lt;div style=&quot;border: 0px; font-style: inherit; font-variant: inherit; font-weight: inherit; font-stretch: inherit; line-height: inherit; font-family: inherit; font-optical-sizing: inherit; font-kerning: inherit; font-feature-settings: inherit; font-variation-settings: inherit; font-size: 16px; margin: 0px; outline: 0px; padding: 0px; vertical-align: baseline;&quot; class=&quot;hackdown-content&quot;&gt;&lt;p style=&quot;border: 0px; font-style: inherit; font-variant: inherit; font-weight: 400; font-stretch: inherit; line-height: 2; font-family: var(--font-family-text); font-optical-sizing: inherit; font-kerning: inherit; font-feature-settings: inherit; font-variation-settings: inherit; font-size: 14px; margin: 5px 0px 0px; outline: 0px; padding: 0px; vertical-align: baseline; color: var(--color-text-dark-faded,#576871);&quot;&gt;The first line contains an integer&lt;span&gt;&amp;nbsp;&lt;/span&gt;&lt;span style=&quot;border: 0px; font-style: normal; font-variant: inherit; font-weight: normal; font-stretch: inherit; line-height: normal; font-family: inherit; font-optical-sizing: inherit; font-kerning: inherit; font-feature-settings: inherit; font-variation-settings: inherit; font-size: 14px; margin: 0px; outline: 0px; padding: 0px; vertical-align: baseline; display: inline-block; text-indent: 0px; text-align: left; text-transform: none; letter-spacing: normal; word-spacing: normal; overflow-wrap: normal; float: none; direction: ltr; max-width: none; max-height: none; min-width: 0px; min-height: 0px;&quot; id=&quot;MathJax-Element-1-Frame&quot; class=&quot;MathJax_SVG&quot;&gt;&lt;svg role=&quot;img&quot; viewBox=&quot;0 -576.1 460.5 865.1&quot; style=&quot;vertical-align: -0.671ex;&quot; height=&quot;2.009ex&quot; width=&quot;1.07ex&quot; xmlns:xlink=&quot;http://www.w3.org/1999/xlink&quot;&gt;&lt;g transform=&quot;matrix(1 0 0 -1 0 0)&quot; stroke-width=&quot;0&quot; fill=&quot;currentColor&quot; stroke=&quot;currentColor&quot;&gt;&lt;path d=&quot;M33 157Q33 258 109 349T280 441Q340 441 372 389Q373 390 377 395T388 406T404 418Q438 442 450 442Q454 442 457 439T460 434Q460 425 391 149Q320 -135 320 -139Q320 -147 365 -148H390Q396 -156 396 -157T393 -175Q389 -188 383 -194H370Q339 -192 262 -192Q234 -192 211 -192T174 -192T157 -193Q143 -193 143 -185Q143 -182 145 -170Q149 -154 152 -151T172 -148Q220 -148 230 -141Q238 -136 258 -53T279 32Q279 33 272 29Q224 -10 172 -10Q117 -10 75 30T33 157ZM352 326Q329 405 277 405Q242 405 210 374T160 293Q131 214 119 129Q119 126 119 118T118 106Q118 61 136 44T179 26Q233 26 290 98L298 109L352 326Z&quot; stroke-width=&quot;1&quot;&gt;&lt;/path&gt;&lt;/g&gt;&lt;/svg&gt;&lt;/span&gt;, the number of queries.&lt;br&gt;Each of the next&lt;span&gt;&amp;nbsp;&lt;/span&gt;&lt;span style=&quot;border: 0px; font-style: normal; font-variant: inherit; font-weight: normal; font-stretch: inherit; line-height: normal; font-family: inherit; font-optical-sizing: inherit; font-kerning: inherit; font-feature-settings: inherit; font-variation-settings: inherit; font-size: 14px; margin: 0px; outline: 0px; padding: 0px; vertical-align: baseline; display: inline-block; text-indent: 0px; text-align: left; text-transform: none; letter-spacing: normal; word-spacing: normal; overflow-wrap: normal; float: none; direction: ltr; max-width: none; max-height: none; min-width: 0px; min-height: 0px;&quot; id=&quot;MathJax-Element-2-Frame&quot; class=&quot;MathJax_SVG&quot;&gt;&lt;svg role=&quot;img&quot; viewBox=&quot;0 -576.1 460.5 865.1&quot; style=&quot;vertical-align: -0.671ex;&quot; height=&quot;2.009ex&quot; width=&quot;1.07ex&quot; xmlns:xlink=&quot;http://www.w3.org/1999/xlink&quot;&gt;&lt;g transform=&quot;matrix(1 0 0 -1 0 0)&quot; stroke-width=&quot;0&quot; fill=&quot;currentColor&quot; stroke=&quot;currentColor&quot;&gt;&lt;path d=&quot;M33 157Q33 258 109 349T280 441Q340 441 372 389Q373 390 377 395T388 406T404 418Q438 442 450 442Q454 442 457 439T460 434Q460 425 391 149Q320 -135 320 -139Q320 -147 365 -148H390Q396 -156 396 -157T393 -175Q389 -188 383 -194H370Q339 -192 262 -192Q234 -192 211 -192T174 -192T157 -193Q143 -193 143 -185Q143 -182 145 -170Q149 -154 152 -151T172 -148Q220 -148 230 -141Q238 -136 258 -53T279 32Q279 33 272 29Q224 -10 172 -10Q117 -10 75 30T33 157ZM352 326Q329 405 277 405Q242 405 210 374T160 293Q131 214 119 129Q119 126 119 118T118 106Q118 61 136 44T179 26Q233 26 290 98L298 109L352 326Z&quot; stroke-width=&quot;1&quot;&gt;&lt;/path&gt;&lt;/g&gt;&lt;/svg&gt;&lt;/span&gt;&lt;span&gt;&amp;nbsp;&lt;/span&gt;lines contains a string&lt;span&gt;&amp;nbsp;&lt;/span&gt;&lt;span style=&quot;border: 0px; font-style: normal; font-variant: inherit; font-weight: normal; font-stretch: inherit; line-height: normal; font-family: inherit; font-optical-sizing: inherit; font-kerning: inherit; font-feature-settings: inherit; font-variation-settings: inherit; font-size: 14px; margin: 0px; outline: 0px; padding: 0px; vertical-align: baseline; display: inline-block; text-indent: 0px; text-align: left; text-transform: none; letter-spacing: normal; word-spacing: normal; overflow-wrap: normal; float: none; direction: ltr; max-width: none; max-height: none; min-width: 0px; min-height: 0px;&quot; id=&quot;MathJax-Element-3-Frame&quot; class=&quot;MathJax_SVG&quot;&gt;&lt;svg role=&quot;img&quot; viewBox=&quot;0 -576.1 469.5 721.6&quot; style=&quot;vertical-align: -0.338ex;&quot; height=&quot;1.676ex&quot; width=&quot;1.09ex&quot; xmlns:xlink=&quot;http://www.w3.org/1999/xlink&quot;&gt;&lt;g transform=&quot;matrix(1 0 0 -1 0 0)&quot; stroke-width=&quot;0&quot; fill=&quot;currentColor&quot; stroke=&quot;currentColor&quot;&gt;&lt;path d=&quot;M131 289Q131 321 147 354T203 415T300 442Q362 442 390 415T419 355Q419 323 402 308T364 292Q351 292 340 300T328 326Q328 342 337 354T354 372T367 378Q368 378 368 379Q368 382 361 388T336 399T297 405Q249 405 227 379T204 326Q204 301 223 291T278 274T330 259Q396 230 396 163Q396 135 385 107T352 51T289 7T195 -10Q118 -10 86 19T53 87Q53 126 74 143T118 160Q133 160 146 151T160 120Q160 94 142 76T111 58Q109 57 108 57T107 55Q108 52 115 47T146 34T201 27Q237 27 263 38T301 66T318 97T323 122Q323 150 302 164T254 181T195 196T148 231Q131 256 131 289Z&quot; stroke-width=&quot;1&quot;&gt;&lt;/path&gt;&lt;/g&gt;&lt;/svg&gt;&lt;/span&gt;&lt;span&gt;&amp;nbsp;&lt;/span&gt;to analyze.&lt;/p&gt;&lt;/div&gt;&lt;/div&gt;&lt;/div&gt;&lt;div style=&quot;border: 0px; font-style: normal; font-variant-ligatures: normal; font-variant-caps: normal; font-variant-numeric: inherit; font-variant-east-asian: inherit; font-weight: 400; font-stretch: inherit; line-height: inherit; font-family: OpenSans, Arial, Helvetica, sans-serif; font-optical-sizing: inherit; font-kerning: inherit; font-feature-settings: inherit; font-variation-settings: inherit; font-size: 16px; margin: 0px; outline: 0px; padding: 0px; vertical-align: baseline; color: rgb(14, 20, 30); letter-spacing: normal; orphans: 2; text-align: start; text-indent: 0px; text-transform: none; widows: 2; word-spacing: 0px; -webkit-text-stroke-width: 0px; background-color: rgb(255, 255, 255); text-decoration-thickness: initial; text-decoration-style: initial; text-decoration-color: initial;&quot; class=&quot;challenge_constraints&quot;&gt;&lt;div style=&quot;border: 0px; font-style: inherit; font-variant: inherit; font-weight: inherit; font-stretch: inherit; line-height: inherit; font-family: inherit; font-optical-sizing: inherit; font-kerning: inherit; font-feature-settings: inherit; font-variation-settings: inherit; font-size: 16px; margin: 0px 0px 10px; outline: 0px; padding: 0px; vertical-align: baseline;&quot; class=&quot;msB challenge_constraints_title&quot;&gt;&lt;p style=&quot;border: 0px; font-style: inherit; font-variant: inherit; font-weight: 400; font-stretch: inherit; line-height: 2; font-family: var(--font-family-text); font-optical-sizing: inherit; font-kerning: inherit; font-feature-settings: inherit; font-variation-settings: inherit; font-size: 14px; margin: 5px 0px 0px; outline: 0px; padding: 0px; vertical-align: baseline; color: var(--color-text-dark-faded,#576871);&quot;&gt;&lt;strong style=&quot;border: 0px; font-style: inherit; font-variant: inherit; font-weight: bolder; font-stretch: inherit; line-height: inherit; font-family: inherit; font-optical-sizing: inherit; font-kerning: inherit; font-feature-settings: inherit; font-variation-settings: inherit; font-size: 14px; margin: 0px; outline: 0px; padding: 0px; vertical-align: baseline; color: var(--color-text-dark,#0e141e);&quot;&gt;Constraints&lt;/strong&gt;&lt;/p&gt;&lt;/div&gt;&lt;div style=&quot;border: 0px; font-style: inherit; font-variant: inherit; font-weight: inherit; font-stretch: inherit; line-height: inherit; font-family: inherit; font-optical-sizing: inherit; font-kerning: inherit; font-feature-settings: inherit; font-variation-settings: inherit; font-size: 16px; margin: 0px 0px 10px; outline: 0px; padding: 0px; vertical-align: baseline;&quot; class=&quot;msB challenge_constraints_body&quot;&gt;&lt;div style=&quot;border: 0px; font-style: inherit; font-variant: inherit; font-weight: inherit; font-stretch: inherit; line-height: inherit; font-family: inherit; font-optical-sizing: inherit; font-kerning: inherit; font-feature-settings: inherit; font-variation-settings: inherit; font-size: 16px; margin: 0px; outline: 0px; padding: 0px; vertical-align: baseline;&quot; class=&quot;hackdown-content&quot;&gt;&lt;p style=&quot;border: 0px; font-style: inherit; font-variant: inherit; font-weight: 400; font-stretch: inherit; line-height: 2; font-family: var(--font-family-text); font-optical-sizing: inherit; font-kerning: inherit; font-feature-settings: inherit; font-variation-settings: inherit; font-size: 14px; margin: 5px 0px 0px; outline: 0px; padding: 0px; vertical-align: baseline; color: var(--color-text-dark-faded,#576871);&quot;&gt;&lt;span style=&quot;border: 0px; font-style: normal; font-variant: inherit; font-weight: normal; font-stretch: inherit; line-height: normal; font-family: inherit; font-optical-sizing: inherit; font-kerning: inherit; font-feature-settings: inherit; font-variation-settings: inherit; font-size: 14px; margin: 0px; outline: 0px; padding: 0px; vertical-align: baseline; display: inline-block; text-indent: 0px; text-align: left; text-transform: none; letter-spacing: normal; word-spacing: normal; overflow-wrap: normal; float: none; direction: ltr; max-width: none; max-height: none; min-width: 0px; min-height: 0px;&quot; id=&quot;MathJax-Element-1-Frame&quot; class=&quot;MathJax_SVG&quot;&gt;&lt;svg role=&quot;img&quot; viewBox=&quot;0 -791.3 4630.1 1080.4&quot; style=&quot;vertical-align: -0.671ex;&quot; height=&quot;2.509ex&quot; width=&quot;10.754ex&quot; xmlns:xlink=&quot;http://www.w3.org/1999/xlink&quot;&gt;&lt;g transform=&quot;matrix(1 0 0 -1 0 0)&quot; stroke-width=&quot;0&quot; fill=&quot;currentColor&quot; stroke=&quot;currentColor&quot;&gt;&lt;path d=&quot;M213 578L200 573Q186 568 160 563T102 556H83V602H102Q149 604 189 617T245 641T273 663Q275 666 285 666Q294 666 302 660V361L303 61Q310 54 315 52T339 48T401 46H427V0H416Q395 3 257 3Q121 3 100 0H88V46H114Q136 46 152 46T177 47T193 50T201 52T207 57T213 61V578Z&quot; stroke-width=&quot;1&quot;&gt;&lt;/path&gt;&lt;g transform=&quot;translate(778,0)&quot;&gt;&lt;path d=&quot;M674 636Q682 636 688 630T694 615T687 601Q686 600 417 472L151 346L399 228Q687 92 691 87Q694 81 694 76Q694 58 676 56H670L382 192Q92 329 90 331Q83 336 83 348Q84 359 96 365Q104 369 382 500T665 634Q669 636 674 636ZM84 -118Q84 -108 99 -98H678Q694 -104 694 -118Q694 -130 679 -138H98Q84 -131 84 -118Z&quot; stroke-width=&quot;1&quot;&gt;&lt;/path&gt;&lt;/g&gt;&lt;g transform=&quot;translate(1834,0)&quot;&gt;&lt;path d=&quot;M33 157Q33 258 109 349T280 441Q340 441 372 389Q373 390 377 395T388 406T404 418Q438 442 450 442Q454 442 457 439T460 434Q460 425 391 149Q320 -135 320 -139Q320 -147 365 -148H390Q396 -156 396 -157T393 -175Q389 -188 383 -194H370Q339 -192 262 -192Q234 -192 211 -192T174 -192T157 -193Q143 -193 143 -185Q143 -182 145 -170Q149 -154 152 -151T172 -148Q220 -148 230 -141Q238 -136 258 -53T279 32Q279 33 272 29Q224 -10 172 -10Q117 -10 75 30T33 157ZM352 326Q329 405 277 405Q242 405 210 374T160 293Q131 214 119 129Q119 126 119 118T118 106Q118 61 136 44T179 26Q233 26 290 98L298 109L352 326Z&quot; stroke-width=&quot;1&quot;&gt;&lt;/path&gt;&lt;/g&gt;&lt;g transform=&quot;translate(2572,0)&quot;&gt;&lt;path d=&quot;M674 636Q682 636 688 630T694 615T687 601Q686 600 417 472L151 346L399 228Q687 92 691 87Q694 81 694 76Q694 58 676 56H670L382 192Q92 329 90 331Q83 336 83 348Q84 359 96 365Q104 369 382 500T665 634Q669 636 674 636ZM84 -118Q84 -108 99 -98H678Q694 -104 694 -118Q694 -130 679 -138H98Q84 -131 84 -118Z&quot; stroke-width=&quot;1&quot;&gt;&lt;/path&gt;&lt;/g&gt;&lt;g transform=&quot;translate(3629,0)&quot;&gt;&lt;path d=&quot;M213 578L200 573Q186 568 160 563T102 556H83V602H102Q149 604 189 617T245 641T273 663Q275 666 285 666Q294 666 302 660V361L303 61Q310 54 315 52T339 48T401 46H427V0H416Q395 3 257 3Q121 3 100 0H88V46H114Q136 46 152 46T177 47T193 50T201 52T207 57T213 61V578Z&quot; stroke-width=&quot;1&quot;&gt;&lt;/path&gt;&lt;path transform=&quot;translate(500,0)&quot; d=&quot;M96 585Q152 666 249 666Q297 666 345 640T423 548Q460 465 460 320Q460 165 417 83Q397 41 362 16T301 -15T250 -22Q224 -22 198 -16T137 16T82 83Q39 165 39 320Q39 494 96 585ZM321 597Q291 629 250 629Q208 629 178 597Q153 571 145 525T137 333Q137 175 145 125T181 46Q209 16 250 16Q290 16 318 46Q347 76 354 130T362 333Q362 478 354 524T321 597Z&quot; stroke-width=&quot;1&quot;&gt;&lt;/path&gt;&lt;/g&gt;&lt;/g&gt;&lt;/svg&gt;&lt;/span&gt;&lt;br&gt;&lt;span style=&quot;border: 0px; font-style: normal; font-variant: inherit; font-weight: normal; font-stretch: inherit; line-height: normal; font-family: inherit; font-optical-sizing: inherit; font-kerning: inherit; font-feature-settings: inherit; font-variation-settings: inherit; font-size: 14px; margin: 0px; outline: 0px; padding: 0px; vertical-align: baseline; display: inline-block; text-indent: 0px; text-align: left; text-transform: none; letter-spacing: normal; word-spacing: normal; overflow-wrap: normal; float: none; direction: ltr; max-width: none; max-height: none; min-width: 0px; min-height: 0px;&quot; id=&quot;MathJax-Element-2-Frame&quot; class=&quot;MathJax_SVG&quot;&gt;&lt;svg role=&quot;img&quot; viewBox=&quot;0 -791.3 9422.6 1080.4&quot; style=&quot;vertical-align: -0.671ex;&quot; height=&quot;2.509ex&quot; width=&quot;21.885ex&quot; xmlns:xlink=&quot;http://www.w3.org/1999/xlink&quot;&gt;&lt;g transform=&quot;matrix(1 0 0 -1 0 0)&quot; stroke-width=&quot;0&quot; fill=&quot;currentColor&quot; stroke=&quot;currentColor&quot;&gt;&lt;path d=&quot;M109 429Q82 429 66 447T50 491Q50 562 103 614T235 666Q326 666 387 610T449 465Q449 422 429 383T381 315T301 241Q265 210 201 149L142 93L218 92Q375 92 385 97Q392 99 409 186V189H449V186Q448 183 436 95T421 3V0H50V19V31Q50 38 56 46T86 81Q115 113 136 137Q145 147 170 174T204 211T233 244T261 278T284 308T305 340T320 369T333 401T340 431T343 464Q343 527 309 573T212 619Q179 619 154 602T119 569T109 550Q109 549 114 549Q132 549 151 535T170 489Q170 464 154 447T109 429Z&quot; stroke-width=&quot;1&quot;&gt;&lt;/path&gt;&lt;g transform=&quot;translate(778,0)&quot;&gt;&lt;path d=&quot;M674 636Q682 636 688 630T694 615T687 601Q686 600 417 472L151 346L399 228Q687 92 691 87Q694 81 694 76Q694 58 676 56H670L382 192Q92 329 90 331Q83 336 83 348Q84 359 96 365Q104 369 382 500T665 634Q669 636 674 636ZM84 -118Q84 -108 99 -98H678Q694 -104 694 -118Q694 -130 679 -138H98Q84 -131 84 -118Z&quot; stroke-width=&quot;1&quot;&gt;&lt;/path&gt;&lt;/g&gt;&lt;g transform=&quot;translate(1834,0)&quot;&gt;&lt;path transform=&quot;translate(250,0)&quot; d=&quot;M42 46H56Q95 46 103 60V68Q103 77 103 91T103 124T104 167T104 217T104 272T104 329Q104 366 104 407T104 482T104 542T103 586T103 603Q100 622 89 628T44 637H26V660Q26 683 28 683L38 684Q48 685 67 686T104 688Q121 689 141 690T171 693T182 694H185V379Q185 62 186 60Q190 52 198 49Q219 46 247 46H263V0H255L232 1Q209 2 183 2T145 3T107 3T57 1L34 0H26V46H42Z&quot; stroke-width=&quot;1&quot;&gt;&lt;/path&gt;&lt;path transform=&quot;translate(528,0)&quot; d=&quot;M28 218Q28 273 48 318T98 391T163 433T229 448Q282 448 320 430T378 380T406 316T415 245Q415 238 408 231H126V216Q126 68 226 36Q246 30 270 30Q312 30 342 62Q359 79 369 104L379 128Q382 131 395 131H398Q415 131 415 121Q415 117 412 108Q393 53 349 21T250 -11Q155 -11 92 58T28 218ZM333 275Q322 403 238 411H236Q228 411 220 410T195 402T166 381T143 340T127 274V267H333V275Z&quot; stroke-width=&quot;1&quot;&gt;&lt;/path&gt;&lt;path transform=&quot;translate(973,0)&quot; d=&quot;M41 46H55Q94 46 102 60V68Q102 77 102 91T102 122T103 161T103 203Q103 234 103 269T102 328V351Q99 370 88 376T43 385H25V408Q25 431 27 431L37 432Q47 433 65 434T102 436Q119 437 138 438T167 441T178 442H181V402Q181 364 182 364T187 369T199 384T218 402T247 421T285 437Q305 442 336 442Q450 438 463 329Q464 322 464 190V104Q464 66 466 59T477 49Q498 46 526 46H542V0H534L510 1Q487 2 460 2T422 3Q319 3 310 0H302V46H318Q379 46 379 62Q380 64 380 200Q379 335 378 343Q372 371 358 385T334 402T308 404Q263 404 229 370Q202 343 195 315T187 232V168V108Q187 78 188 68T191 55T200 49Q221 46 249 46H265V0H257L234 1Q210 2 183 2T145 3Q42 3 33 0H25V46H41Z&quot; stroke-width=&quot;1&quot;&gt;&lt;/path&gt;&lt;path transform=&quot;translate(1529,0)&quot; d=&quot;M329 409Q373 453 429 453Q459 453 472 434T485 396Q485 382 476 371T449 360Q416 360 412 390Q410 404 415 411Q415 412 416 414V415Q388 412 363 393Q355 388 355 386Q355 385 359 381T368 369T379 351T388 325T392 292Q392 230 343 187T222 143Q172 143 123 171Q112 153 112 133Q112 98 138 81Q147 75 155 75T227 73Q311 72 335 67Q396 58 431 26Q470 -13 470 -72Q470 -139 392 -175Q332 -206 250 -206Q167 -206 107 -175Q29 -140 29 -75Q29 -39 50 -15T92 18L103 24Q67 55 67 108Q67 155 96 193Q52 237 52 292Q52 355 102 398T223 442Q274 442 318 416L329 409ZM299 343Q294 371 273 387T221 404Q192 404 171 388T145 343Q142 326 142 292Q142 248 149 227T179 192Q196 182 222 182Q244 182 260 189T283 207T294 227T299 242Q302 258 302 292T299 343ZM403 -75Q403 -50 389 -34T348 -11T299 -2T245 0H218Q151 0 138 -6Q118 -15 107 -34T95 -74Q95 -84 101 -97T122 -127T170 -155T250 -167Q319 -167 361 -139T403 -75Z&quot; stroke-width=&quot;1&quot;&gt;&lt;/path&gt;&lt;path transform=&quot;translate(2030,0)&quot; d=&quot;M27 422Q80 426 109 478T141 600V615H181V431H316V385H181V241Q182 116 182 100T189 68Q203 29 238 29Q282 29 292 100Q293 108 293 146V181H333V146V134Q333 57 291 17Q264 -10 221 -10Q187 -10 162 2T124 33T105 68T98 100Q97 107 97 248V385H18V422H27Z&quot; stroke-width=&quot;1&quot;&gt;&lt;/path&gt;&lt;path transform=&quot;translate(2419,0)&quot; d=&quot;M41 46H55Q94 46 102 60V68Q102 77 102 91T102 124T102 167T103 217T103 272T103 329Q103 366 103 407T103 482T102 542T102 586T102 603Q99 622 88 628T43 637H25V660Q25 683 27 683L37 684Q47 685 66 686T103 688Q120 689 140 690T170 693T181 694H184V367Q244 442 328 442Q451 442 463 329Q464 322 464 190V104Q464 66 466 59T477 49Q498 46 526 46H542V0H534L510 1Q487 2 460 2T422 3Q319 3 310 0H302V46H318Q379 46 379 62Q380 64 380 200Q379 335 378 343Q372 371 358 385T334 402T308 404Q263 404 229 370Q202 343 195 315T187 232V168V108Q187 78 188 68T191 55T200 49Q221 46 249 46H265V0H257L234 1Q210 2 183 2T145 3Q42 3 33 0H25V46H41Z&quot; stroke-width=&quot;1&quot;&gt;&lt;/path&gt;&lt;path transform=&quot;translate(3226,0)&quot; d=&quot;M28 214Q28 309 93 378T250 448Q340 448 405 380T471 215Q471 120 407 55T250 -10Q153 -10 91 57T28 214ZM250 30Q372 30 372 193V225V250Q372 272 371 288T364 326T348 362T317 390T268 410Q263 411 252 411Q222 411 195 399Q152 377 139 338T126 246V226Q126 130 145 91Q177 30 250 30Z&quot; stroke-width=&quot;1&quot;&gt;&lt;/path&gt;&lt;path transform=&quot;translate(3726,0)&quot; d=&quot;M273 0Q255 3 146 3Q43 3 34 0H26V46H42Q70 46 91 49Q99 52 103 60Q104 62 104 224V385H33V431H104V497L105 564L107 574Q126 639 171 668T266 704Q267 704 275 704T289 705Q330 702 351 679T372 627Q372 604 358 590T321 576T284 590T270 627Q270 647 288 667H284Q280 668 273 668Q245 668 223 647T189 592Q183 572 182 497V431H293V385H185V225Q185 63 186 61T189 57T194 54T199 51T206 49T213 48T222 47T231 47T241 46T251 46H282V0H273Z&quot; stroke-width=&quot;1&quot;&gt;&lt;/path&gt;&lt;/g&gt;&lt;g transform=&quot;translate(6117,0)&quot;&gt;&lt;path d=&quot;M131 289Q131 321 147 354T203 415T300 442Q362 442 390 415T419 355Q419 323 402 308T364 292Q351 292 340 300T328 326Q328 342 337 354T354 372T367 378Q368 378 368 379Q368 382 361 388T336 399T297 405Q249 405 227 379T204 326Q204 301 223 291T278 274T330 259Q396 230 396 163Q396 135 385 107T352 51T289 7T195 -10Q118 -10 86 19T53 87Q53 126 74 143T118 160Q133 160 146 151T160 120Q160 94 142 76T111 58Q109 57 108 57T107 55Q108 52 115 47T146 34T201 27Q237 27 263 38T301 66T318 97T323 122Q323 150 302 164T254 181T195 196T148 231Q131 256 131 289Z&quot; stroke-width=&quot;1&quot;&gt;&lt;/path&gt;&lt;/g&gt;&lt;g transform=&quot;translate(6864,0)&quot;&gt;&lt;path d=&quot;M674 636Q682 636 688 630T694 615T687 601Q686 600 417 472L151 346L399 228Q687 92 691 87Q694 81 694 76Q694 58 676 56H670L382 192Q92 329 90 331Q83 336 83 348Q84 359 96 365Q104 369 382 500T665 634Q669 636 674 636ZM84 -118Q84 -108 99 -98H678Q694 -104 694 -118Q694 -130 679 -138H98Q84 -131 84 -118Z&quot; stroke-width=&quot;1&quot;&gt;&lt;/path&gt;&lt;/g&gt;&lt;g transform=&quot;translate(7921,0)&quot;&gt;&lt;path d=&quot;M213 578L200 573Q186 568 160 563T102 556H83V602H102Q149 604 189 617T245 641T273 663Q275 666 285 666Q294 666 302 660V361L303 61Q310 54 315 52T339 48T401 46H427V0H416Q395 3 257 3Q121 3 100 0H88V46H114Q136 46 152 46T177 47T193 50T201 52T207 57T213 61V578Z&quot; stroke-width=&quot;1&quot;&gt;&lt;/path&gt;&lt;path transform=&quot;translate(500,0)&quot; d=&quot;M96 585Q152 666 249 666Q297 666 345 640T423 548Q460 465 460 320Q460 165 417 83Q397 41 362 16T301 -15T250 -22Q224 -22 198 -16T137 16T82 83Q39 165 39 320Q39 494 96 585ZM321 597Q291 629 250 629Q208 629 178 597Q153 571 145 525T137 333Q137 175 145 125T181 46Q209 16 250 16Q290 16 318 46Q347 76 354 130T362 333Q362 478 354 524T321 597Z&quot; stroke-width=&quot;1&quot;&gt;&lt;/path&gt;&lt;path transform=&quot;translate(1001,0)&quot; d=&quot;M96 585Q152 666 249 666Q297 666 345 640T423 548Q460 465 460 320Q460 165 417 83Q397 41 362 16T301 -15T250 -22Q224 -22 198 -16T137 16T82 83Q39 165 39 320Q39 494 96 585ZM321 597Q291 629 250 629Q208 629 178 597Q153 571 145 525T137 333Q137 175 145 125T181 46Q209 16 250 16Q290 16 318 46Q347 76 354 130T362 333Q362 478 354 524T321 597Z&quot; stroke-width=&quot;1&quot;&gt;&lt;/path&gt;&lt;/g&gt;&lt;/g&gt;&lt;/svg&gt;&lt;/span&gt;&lt;br&gt;&lt;span style=&quot;border: 0px; font-style: normal; font-variant: inherit; font-weight: normal; font-stretch: inherit; line-height: normal; font-family: inherit; font-optical-sizing: inherit; font-kerning: inherit; font-feature-settings: inherit; font-variation-settings: inherit; font-size: 14px; margin: 0px; outline: 0px; padding: 0px; vertical-align: baseline; display: inline-block; text-indent: 0px; text-align: left; text-transform: none; letter-spacing: normal; word-spacing: normal; overflow-wrap: normal; float: none; direction: ltr; max-width: none; max-height: none; min-width: 0px; min-height: 0px;&quot; id=&quot;MathJax-Element-3-Frame&quot; class=&quot;MathJax_SVG&quot;&gt;&lt;svg role=&quot;img&quot; viewBox=&quot;0 -576.1 469.5 721.6&quot; style=&quot;vertical-align: -0.338ex;&quot; height=&quot;1.676ex&quot; width=&quot;1.09ex&quot; xmlns:xlink=&quot;http://www.w3.org/1999/xlink&quot;&gt;&lt;g transform=&quot;matrix(1 0 0 -1 0 0)&quot; stroke-width=&quot;0&quot; fill=&quot;currentColor&quot; stroke=&quot;currentColor&quot;&gt;&lt;path d=&quot;M131 289Q131 321 147 354T203 415T300 442Q362 442 390 415T419 355Q419 323 402 308T364 292Q351 292 340 300T328 326Q328 342 337 354T354 372T367 378Q368 378 368 379Q368 382 361 388T336 399T297 405Q249 405 227 379T204 326Q204 301 223 291T278 274T330 259Q396 230 396 163Q396 135 385 107T352 51T289 7T195 -10Q118 -10 86 19T53 87Q53 126 74 143T118 160Q133 160 146 151T160 120Q160 94 142 76T111 58Q109 57 108 57T107 55Q108 52 115 47T146 34T201 27Q237 27 263 38T301 66T318 97T323 122Q323 150 302 164T254 181T195 196T148 231Q131 256 131 289Z&quot; stroke-width=&quot;1&quot;&gt;&lt;/path&gt;&lt;/g&gt;&lt;/svg&gt;&lt;/span&gt;&lt;span&gt;&amp;nbsp;&lt;/span&gt;contains only lowercase letters in the range ascii[a-z].&lt;/p&gt;&lt;/div&gt;&lt;/div&gt;&lt;/div&gt;" style="text;whiteSpace=wrap;html=1;" parent="1" vertex="1">
          <mxGeometry x="-750" y="-300" width="560" height="670" as="geometry" />
        </mxCell>
        <mxCell id="N7JFlZK18YxuQD6vvopf-3" value="&lt;div style=&quot;&quot;&gt;&lt;span style=&quot;background-color: initial;&quot;&gt;Substructure&lt;/span&gt;&lt;/div&gt;&lt;div style=&quot;&quot;&gt;&lt;span style=&quot;background-color: initial;&quot;&gt;A{s1...sk} -&amp;gt; A{s1...sk+1}&lt;/span&gt;&lt;/div&gt;&lt;div style=&quot;&quot;&gt;&lt;span style=&quot;background-color: initial;&quot;&gt;&lt;br&gt;&lt;/span&gt;&lt;/div&gt;&lt;div style=&quot;&quot;&gt;&lt;span style=&quot;background-color: initial;&quot;&gt;Definitions:&lt;/span&gt;&lt;/div&gt;&lt;div style=&quot;&quot;&gt;&lt;span style=&quot;background-color: initial;&quot;&gt;Substring pairs -&amp;gt; Pairs A{} ~= B{} len(A) and len(B) &amp;lt; n&lt;/span&gt;&lt;/div&gt;&lt;div style=&quot;&quot;&gt;&lt;span style=&quot;background-color: initial;&quot;&gt;A{} must be != B{} (at least 1 element in A must have different original index from B)&lt;/span&gt;&lt;/div&gt;&lt;div style=&quot;&quot;&gt;&lt;span style=&quot;background-color: initial;&quot;&gt;&lt;br&gt;&lt;/span&gt;&lt;/div&gt;&lt;div style=&quot;&quot;&gt;&lt;span style=&quot;background-color: initial;&quot;&gt;&lt;br&gt;&lt;/span&gt;&lt;/div&gt;&lt;div style=&quot;&quot;&gt;&lt;span style=&quot;background-color: initial;&quot;&gt;Base Case:&lt;/span&gt;&lt;/div&gt;&lt;div style=&quot;&quot;&gt;&lt;span style=&quot;background-color: initial;&quot;&gt;len(S) &amp;lt; 2 -&amp;gt; 0&lt;/span&gt;&lt;/div&gt;&lt;div style=&quot;&quot;&gt;{} ~= {} -&amp;gt; 0&lt;/div&gt;&lt;div style=&quot;&quot;&gt;&lt;br&gt;&lt;/div&gt;&lt;div style=&quot;&quot;&gt;First Case:&lt;/div&gt;&lt;div style=&quot;&quot;&gt;{s1} ~= {s2} -&amp;gt; 1&lt;/div&gt;&lt;div style=&quot;&quot;&gt;Where s1 == s2&lt;/div&gt;&lt;div style=&quot;&quot;&gt;Find all one string pair combinations, then check if s1==s2&lt;/div&gt;&lt;div style=&quot;&quot;&gt;&lt;br&gt;&lt;/div&gt;&lt;div style=&quot;&quot;&gt;Next Case:&lt;/div&gt;&lt;div style=&quot;&quot;&gt;list superstrings of length (k) adjacent&amp;nbsp; from previous strings (length k-1)&lt;/div&gt;&lt;div style=&quot;&quot;&gt;check for duplicates, store and count&lt;/div&gt;&lt;div style=&quot;&quot;&gt;&lt;br&gt;&lt;/div&gt;&lt;div style=&quot;&quot;&gt;&lt;br&gt;&lt;/div&gt;" style="text;html=1;strokeColor=none;fillColor=none;align=left;verticalAlign=middle;whiteSpace=wrap;rounded=0;" parent="1" vertex="1">
          <mxGeometry x="-810" y="370" width="550" height="380" as="geometry" />
        </mxCell>
        <mxCell id="vngWWw3sJq_1jXb0qDJC-1" value="n^3/2 - n^2/2" style="text;whiteSpace=wrap;html=1;" vertex="1" parent="1">
          <mxGeometry x="-700" y="750" width="100" height="40" as="geometry" />
        </mxCell>
      </root>
    </mxGraphModel>
  </diagram>
</mxfile>
